<?xml version="1.0" standalone="no"?>
<!DOCTYPE svg PUBLIC "-//W3C//DTD SVG 1.1//EN" "http://www.w3.org/Graphics/SVG/1.1/DTD/svg11.dtd" >
<svg xmlns="http://www.w3.org/2000/svg">
<metadata></metadata>
<defs>
<font id="exo_2bold" horiz-adv-x="1241" >
<font-face units-per-em="2048" ascent="1638" descent="-410" />
<missing-glyph horiz-adv-x="444" />
<glyph horiz-adv-x="2048" />
<glyph horiz-adv-x="2048" />
<glyph unicode="&#xd;" horiz-adv-x="681" />
<glyph unicode=" "  horiz-adv-x="444" />
<glyph unicode="&#x09;" horiz-adv-x="444" />
<glyph unicode="&#xa0;" horiz-adv-x="444" />
<glyph unicode="!" horiz-adv-x="614" d="M156 870v553h301v-553l-31 -421h-238zM166 106v99q0 59 23.5 81.5t82.5 22.5h70q59 0 83 -22.5t24 -81.5v-99q0 -59 -24 -82.5t-83 -23.5h-70q-59 0 -82.5 23.5t-23.5 82.5z" />
<glyph unicode="&#x22;" horiz-adv-x="768" d="M109 1413h221l-19 -452h-186zM438 1413h224l-19 -452h-186z" />
<glyph unicode="#" horiz-adv-x="1454" d="M66 403l34 183h236l49 286h-233l34 181h232l61 360h230l-64 -360h287l61 360h230l-64 -360h230l-35 -181h-226l-49 -286h224l-35 -183h-221l-70 -403h-229l69 403h-285l-69 -403h-230l70 403h-237zM565 586h285l49 286h-285z" />
<glyph unicode="$" horiz-adv-x="1181" d="M92 1049q0 156 50.5 240.5t149.5 116.5t277 34l19 184h227l-20 -192q147 -14 264 -48l-19 -213q-178 6 -438 7q-121 0 -162 -21.5t-41 -107.5q0 -70 32 -100.5t118 -59.5l262 -92q162 -57 228.5 -156.5t66.5 -259.5q0 -225 -103.5 -313t-361.5 -93l-20 -221h-228l21 228 q-141 10 -308 45l21 229q342 -8 461 -8q123 0 165 25.5t42 105.5q0 72 -29 101.5t-107 54.5l-278 100q-156 57 -222.5 155.5t-66.5 258.5z" />
<glyph unicode="%" horiz-adv-x="1857" d="M70 1020q0 236 77.5 328t272.5 92q197 0 274.5 -92.5t77.5 -327.5q0 -233 -78 -326.5t-274 -93.5q-195 0 -272.5 93t-77.5 327zM293 1020q0 -154 25.5 -203t99.5 -49q78 0 103.5 49t25.5 203t-25.5 203t-103.5 49q-74 0 -99.5 -50.5t-25.5 -201.5zM406 0l847 1413h193 l-846 -1413h-194zM1087 397q0 233 77 326.5t272 93.5q197 0 274.5 -93t77.5 -327q0 -236 -78 -329t-274 -93q-195 0 -272 93.5t-77 328.5zM1311 397q-2 -154 23.5 -203t101 -49t101.5 49.5t26 202.5q0 152 -26 201t-101.5 49t-101 -48t-23.5 -202z" />
<glyph unicode="&#x26;" horiz-adv-x="1566" d="M104 358q0 170 64.5 264.5t214.5 106.5v8q-125 12 -180.5 92t-55.5 238q0 123 29 196.5t101.5 111.5t165 50.5t253.5 12.5q201 0 334 -25l-37 -215q-209 6 -305 6q-135 0 -180 -34.5t-45 -149.5q0 -109 40 -147.5t150 -38.5h312l20 217h254v-217h219v-211h-219v-297 q0 -59 21.5 -82t76.5 -23h127l33 -205q-106 -41 -260 -41q-203 0 -262 150q-84 -80 -185.5 -115t-257.5 -35q-231 0 -329.5 86t-98.5 297zM434 420q0 -117 37 -156t150 -39q203 4 333 92v306h-317q-119 0 -161 -42t-42 -161z" />
<glyph unicode="'" horiz-adv-x="436" d="M109 1413h221l-19 -452h-186z" />
<glyph unicode="(" horiz-adv-x="747" d="M80 639q0 408 143.5 645.5t450.5 333.5l35 -131q-336 -154 -336 -846q0 -682 336 -848l-35 -131q-307 98 -450.5 334.5t-143.5 642.5z" />
<glyph unicode=")" horiz-adv-x="747" d="M39 -207q336 166 336 848q0 692 -336 846l35 131q307 -96 450.5 -333.5t143.5 -645.5q0 -406 -143.5 -642.5t-450.5 -334.5z" />
<glyph unicode="*" horiz-adv-x="925" d="M78 1094l51 159l238 -100v-74l-37 -45zM184 809l219 262l-24 344h168l-25 -342l217 -264l-133 -100l-143 249l-144 -247zM559 1079v74l238 100l51 -159l-250 -60z" />
<glyph unicode="+" horiz-adv-x="1103" d="M86 506v221h352v344h226v-344h354v-221h-354v-342h-224v342h-354z" />
<glyph unicode="," horiz-adv-x="497" d="M102 94l2 111q2 59 26 81.5t83 22.5h72q59 0 81.5 -22.5t22.5 -81.5v-131q0 -205 -104 -375l-125 39q29 121 28 262q-82 0 -86 94z" />
<glyph unicode="-" horiz-adv-x="847" d="M119 422v199h610v-199h-610z" />
<glyph unicode="." horiz-adv-x="503" d="M104 106v99q0 59 24 81.5t83 22.5h82q59 0 82.5 -22.5t23.5 -81.5v-99q0 -59 -23.5 -82.5t-82.5 -23.5h-82q-59 0 -83 23.5t-24 82.5z" />
<glyph unicode="/" horiz-adv-x="1126" d="M41 -147l805 1560h239l-804 -1560h-240z" />
<glyph unicode="0" horiz-adv-x="1288" d="M100 706.5q0 405.5 121 569.5t422 164q303 0 424 -164t121 -569.5t-121 -569.5t-424 -164q-301 0 -422 164t-121 569.5zM408 706.5q0 -286.5 48 -386t185 -99.5q141 0 190.5 99.5t49.5 386t-49.5 386t-190.5 99.5q-137 0 -185 -99.5t-48 -386z" />
<glyph unicode="1" horiz-adv-x="878" d="M23 1272l354 141h311v-1413h-311v995q0 90 12 154l-330 -86z" />
<glyph unicode="2" horiz-adv-x="1183" d="M92 0v174q0 80 45 127l346 373q254 264 252 403q-2 59 -45 76.5t-147 17.5q-217 0 -426 -18l-13 236q238 49 475.5 49t355.5 -70t118 -258q0 -127 -46 -224.5t-184 -242.5l-362 -377q78 14 209 15h424v-281h-1002z" />
<glyph unicode="3" horiz-adv-x="1159" d="M84 10l12 234q229 -14 389 -15q150 0 205 42t55 163q0 104 -45 150.5t-172 44.5h-264v213h264q123 0 159 46t34 142q0 100 -43 128t-176 28q-176 0 -377 -8l-14 225q227 37 444 37q252 0 356.5 -72t104.5 -256q0 -160 -47 -248t-168 -108v-8q137 -23 193.5 -108 t58.5 -247q4 -223 -106.5 -321.5t-377.5 -98.5q-209 0 -485 37z" />
<glyph unicode="4" horiz-adv-x="1302" d="M66 541l366 872h295l-336 -813q-14 -35 -2 -51.5t43 -16.5h342v381l51 226h238v-607h176v-192l-172 -29h-4v-311h-289v311h-559q-92 0 -138 72t-11 158z" />
<glyph unicode="5" horiz-adv-x="1128" d="M78 20l28 242q227 -25 365 -24q154 0 206 45t56 155q6 127 -59.5 164t-270.5 55l-172 21q-45 4 -72.5 37t-25.5 78l35 620h831l-10 -242h-579l-17 -256l203 -24q244 -27 345 -141.5t101 -317.5q0 -457 -493 -457q-205 0 -471 45z" />
<glyph unicode="6" horiz-adv-x="1204" d="M104 692q0 193 25 326t69 215t120.5 128t162.5 61.5t213 15.5q201 0 334 -37l-16 -205q-106 4 -318 4q-160 0 -218 -69.5t-68 -301.5q113 102 311 103q229 0 316 -101.5t87 -347.5q0 -131 -20.5 -219t-72.5 -156.5t-151.5 -100.5t-250.5 -32q-213 0 -322.5 62.5t-155 213 t-45.5 441.5zM406 631q2 -266 39 -341t184 -75q129 0 163.5 56.5t34.5 205.5q0 133 -39.5 180.5t-158.5 47.5q-111 0 -223 -74z" />
<glyph unicode="7" horiz-adv-x="1077" d="M55 1413h848q78 0 114 -48t11 -118l-428 -1247h-307l358 1024q25 76 60 133h-643z" />
<glyph unicode="8" horiz-adv-x="1267" d="M109 352q-1 354 243 377v8q-106 12 -157.5 101.5t-51.5 222.5q0 207 101.5 292t390.5 85t390 -85t101 -292q0 -133 -52 -222t-156 -102v-8q135 -12 188 -110.5t53 -266.5q0 -207 -108.5 -292t-415.5 -87q-305 -2 -415.5 85t-110.5 294zM401 416q0 -119 47.5 -160 t188.5 -41q137 0 182 41t45 160q0 127 -44 168t-181 41q-143 0 -190.5 -42t-47.5 -167zM424 1024q0 -109 43 -145.5t172 -36.5q127 0 166 35.5t39 146.5q0 115 -40 152.5t-167 37.5q-129 0 -171 -37.5t-42 -152.5z" />
<glyph unicode="9" horiz-adv-x="1204" d="M86 930q-2 270 108.5 389t389.5 119q133 0 220 -21.5t146.5 -67.5t90 -134.5t43 -202t12.5 -291.5q0 -238 -30 -383t-105.5 -226t-179 -109t-273.5 -28q-213 0 -363 37l19 207q115 -4 342 -4q160 0 220 77t69 296q-115 -106 -314 -107q-395 0 -395 449zM379 936 q-2 -125 40 -177t154 -52q106 0 224 77q0 264 -36 340t-179 76q-127 0 -166 -59.5t-37 -204.5z" />
<glyph unicode=":" horiz-adv-x="530" d="M106 106v99q0 59 24 82.5t83 23.5h82q59 0 82.5 -23.5t23.5 -82.5v-99q0 -59 -23.5 -82.5t-82.5 -23.5h-82q-59 0 -83 23.5t-24 82.5zM106 719v98q0 59 24 83t83 24h82q59 0 82.5 -23.5t23.5 -83.5v-98q0 -59 -23.5 -82t-82.5 -23h-82q-59 0 -83 22.5t-24 82.5z" />
<glyph unicode=";" horiz-adv-x="530" d="M119 94l4 111q2 59 25.5 81.5t80.5 22.5h72q59 0 82 -22.5t25 -81.5v-131q-2 -207 -107 -375l-125 39q27 104 31 262q-84 0 -88 94zM121 719v98q0 59 23.5 83t82.5 24h82q59 0 83 -23.5t24 -83.5v-98q0 -59 -23.5 -82t-83.5 -23h-82q-59 0 -82.5 22.5t-23.5 82.5z" />
<glyph unicode="&#x3c;" horiz-adv-x="1060" d="M82 500v233l860 338v-235l-604 -220l604 -219v-235z" />
<glyph unicode="=" horiz-adv-x="1185" d="M123 283v215h940v-215h-940zM123 719v215h940v-215h-940z" />
<glyph unicode="&#x3e;" horiz-adv-x="1058" d="M117 162v235l604 219l-604 220v235l860 -338v-233z" />
<glyph unicode="?" horiz-adv-x="1056" d="M63 1409q23 4 83.5 15.5t85 14.5t77.5 9t111.5 8t136.5 2q221 0 329.5 -77.5t108.5 -239.5q0 -82 -35.5 -152.5t-87 -124t-104.5 -109t-94 -134t-47 -172.5h-246q-4 123 39 227t97 163.5t103.5 125t53.5 116.5q6 68 -39 99.5t-150 31.5q-180 0 -411 -10zM360 106v99 q0 59 24 81.5t83 22.5h72q59 0 82.5 -22.5t23.5 -81.5v-99q0 -59 -23.5 -82.5t-82.5 -23.5h-72q-59 0 -83 23.5t-24 82.5z" />
<glyph unicode="@" horiz-adv-x="1548" d="M117 549q0 162 6 259t32.5 181t65.5 125t117 70.5t174 38t252 8.5h311q178 0 267.5 -79t89.5 -261v-615h-224l-26 142q-57 -66 -152.5 -115t-206.5 -49q-127 0 -207.5 67.5t-80.5 190.5v98q0 106 67.5 166t192.5 60h356v51q0 70 -29.5 94.5t-107.5 24.5h-250 q-96 0 -142.5 -2.5t-96.5 -18.5t-68.5 -40.5t-37 -80t-21.5 -126t-3 -189.5q0 -123 3 -194.5t27 -129t42 -81t83.5 -39t117 -16.5t174.5 -1h10h578v-203q-354 -27 -576 -26q-176 0 -285.5 7t-198.5 36.5t-134.5 71.5t-75 127t-36.5 184.5t-7 263.5zM807 559q0 -94 98 -94 q143 0 246 90v129l-248 -8q-53 -2 -74.5 -21.5t-21.5 -62.5v-33z" />
<glyph unicode="A" horiz-adv-x="1331" d="M2 0l408 1331q8 37 38.5 59.5t69.5 22.5h295q88 0 109 -82l407 -1331h-317l-103 371h-485l-102 -371h-320zM489 612h353l-119 432q-25 102 -29 134h-55q-4 -20 -14.5 -65.5t-16.5 -68.5z" />
<glyph unicode="B" horiz-adv-x="1304" d="M143 0v1413q182 16 531 17q283 0 391.5 -77t108.5 -292q0 -154 -58.5 -233t-189.5 -91v-8q158 -14 225.5 -107.5t67.5 -269.5q0 -213 -109 -290.5t-371 -77.5q-393 0 -596 16zM449 219h237q129 0 174 38t45 155q0 127 -47 171t-180 46h-229v-410zM449 836h227 q115 0 156.5 36.5t41.5 145.5q0 106 -45 141t-170 35l-210 2v-360z" />
<glyph unicode="C" horiz-adv-x="1200" d="M96 706.5q0 403.5 133 567.5t461 164q238 0 424 -47l-27 -234q-166 10 -397 10q-154 0 -210 -97t-56 -363.5t56.5 -363.5t209.5 -97q285 0 426 18l27 -231q-184 -57 -453 -58q-328 0 -461 164t-133 567.5z" />
<glyph unicode="D" horiz-adv-x="1392" d="M143 0v1413q291 18 549 19q338 0 470 -156t132 -569.5t-132 -569t-470 -155.5q-258 0 -549 18zM455 229q35 0 113.5 -1t123.5 -1q158 0 216.5 100.5t58.5 379t-58.5 380t-216.5 101.5l-237 -2v-957z" />
<glyph unicode="E" horiz-adv-x="1179" d="M131 279v856q2 131 86 207.5t225 76.5q463 0 656 -20l-15 -232h-542q-51 0 -74 -24.5t-23 -79.5v-215h564v-225h-564v-273q0 -57 22.5 -81.5t74.5 -24.5h542l15 -230q-193 -20 -656 -20q-141 0 -225 76.5t-86 208.5z" />
<glyph unicode="F" horiz-adv-x="1134" d="M139 0v1126q0 135 85 214t227 79q451 0 634 -22l-16 -230h-506q-59 0 -84.5 -24.5t-25.5 -79.5v-242h540v-227h-540v-594h-314z" />
<glyph unicode="G" horiz-adv-x="1320" d="M96 711q0 414 140.5 571.5t492.5 157.5q256 0 434 -49l-24 -230q-231 10 -400 10q-94 0 -148 -15t-95 -66.5t-55.5 -142.5t-14.5 -247q0 -264 49 -362t182 -98q123 0 254 71v504h301v-815h-229l-29 141q-164 -168 -407 -168q-238 0 -344.5 174.5t-106.5 563.5z" />
<glyph unicode="H" horiz-adv-x="1409" d="M143 0v1413h312v-541h499v541h312v-1413h-312v631h-499v-631h-312z" />
<glyph unicode="I" horiz-adv-x="598" d="M143 0v1413h312v-1413h-312z" />
<glyph unicode="J" horiz-adv-x="755" d="M41 16l35 209h96q135 0 135 109v1079h311v-1116q0 -154 -83.5 -238t-235.5 -84q-170 0 -258 41z" />
<glyph unicode="K" horiz-adv-x="1292" d="M143 0v1413h312v-399q0 -90 -15 -168h121l359 567h337l-364 -563q-35 -61 -102 -113v-8q74 -51 118 -125l373 -604h-348l-373 623h-121q14 -82 15 -136v-487h-312z" />
<glyph unicode="L" horiz-adv-x="1089" d="M139 295v1118h312v-1055q0 -55 25.5 -79.5t84.5 -24.5h486l14 -238q-198 -22 -566 -22h-32q-164 0 -244 82t-80 219z" />
<glyph unicode="M" horiz-adv-x="1865" d="M117 0l51 1296q6 117 117 117h301q100 0 123 -100l172 -705q16 -68 37 -198h26q2 10 15.5 83.5t21.5 114.5l170 705q25 100 127 100h301q113 0 117 -117l55 -1296h-295l-47 1169h-35l-213 -874q-20 -100 -127 -100h-205q-106 0 -127 100l-215 874h-34l-41 -1169h-295z " />
<glyph unicode="N" horiz-adv-x="1478" d="M143 0v1300q0 113 113 113h190q47 0 74 -21.5t51 -70.5l359 -731q51 -102 102 -228h21q-12 160 -13 238v813h295v-1300q0 -113 -110 -113h-195q-47 0 -73.5 21.5t-51.5 70.5l-370 754q-70 150 -86 219h-23q14 -102 14 -225v-840h-297z" />
<glyph unicode="O" horiz-adv-x="1400" d="M96 706.5q0 419.5 132 576.5t472 157t473.5 -157t133.5 -576.5t-133.5 -576.5t-473.5 -157t-472 157t-132 576.5zM424 706.5q0 -280.5 58.5 -381t218 -100.5t218 100.5t58.5 381t-58.5 381t-218 100.5t-218 -100.5t-58.5 -381z" />
<glyph unicode="P" horiz-adv-x="1257" d="M143 0v1413q190 18 537 19q297 0 406.5 -96.5t109.5 -365t-103.5 -365.5t-371.5 -97q-135 0 -266 16v-524h-312zM455 748h219q121 2 165 47t44 176t-44 176t-165 45l-219 -2v-442z" />
<glyph unicode="Q" horiz-adv-x="1404" d="M96 706.5q0 419.5 133 576.5t473 157t472.5 -157t132.5 -576.5t-132.5 -576.5t-472.5 -157t-473 157t-133 576.5zM426 706.5q0 -280.5 58.5 -381t218 -100.5t218 100.5t58.5 381t-58.5 381t-218 100.5t-218 -100.5t-58.5 -381zM526 -238l74 166q246 -86 614 -139 l-88 -278q-307 75 -600 251z" />
<glyph unicode="R" horiz-adv-x="1316" d="M143 0v1413q190 18 539 19q285 0 403.5 -90.5t118.5 -327.5q0 -156 -62.5 -244t-207.5 -106v-11q162 -37 201 -213l122 -440h-329l-107 432q-20 68 -54 93.5t-97 25.5l-219 2v-553h-308zM451 793h225q123 0 168 42t45 158.5t-44 157.5t-169 41l-225 -2v-397z" />
<glyph unicode="S" horiz-adv-x="1191" d="M88 1049q0 233 113.5 312t400.5 79q270 0 465 -56l-20 -213q-178 6 -443 7q-123 0 -164 -21.5t-41 -107.5q0 -70 31 -100.5t117 -59.5l268 -92q164 -57 231.5 -156.5t67.5 -259.5q0 -238 -114.5 -323t-409.5 -85q-240 0 -486 54l19 225q436 -10 467 -10q125 0 167 26.5 t42 110.5q0 72 -28.5 101.5t-104.5 54.5l-285 100q-158 57 -225.5 155.5t-67.5 258.5z" />
<glyph unicode="T" horiz-adv-x="1230" d="M37 1159v254h1157v-254h-422v-1159h-313v1159h-422z" />
<glyph unicode="U" horiz-adv-x="1394" d="M133 563v850h311v-850q0 -195 54.5 -266.5t199.5 -71.5q143 0 197.5 72t54.5 266v850h314v-850q0 -324 -124 -457t-427 -133q-319 0 -449.5 133.5t-130.5 456.5z" />
<glyph unicode="V" horiz-adv-x="1302" d="M14 1413h322l256 -1020q20 -82 35 -157h51q6 39 35 157l254 1020h321l-383 -1327q-10 -39 -39.5 -62.5t-70.5 -23.5h-285q-41 0 -70.5 23.5t-40.5 62.5z" />
<glyph unicode="W" horiz-adv-x="1992" d="M53 1413h320l137 -981q12 -92 18 -205h41q6 57 31 205l152 885q6 43 35.5 69.5t74.5 26.5h271q43 0 72.5 -26.5t35.5 -69.5l152 -887q25 -152 28 -203h43q8 117 19 201l139 985h317l-223 -1327q-8 -39 -38.5 -62.5t-73.5 -23.5h-299q-43 0 -74 24.5t-37 63.5l-154 924 q-16 90 -24 178h-39q0 -6 -9.5 -76t-15.5 -104l-151 -922q-6 -39 -38 -63.5t-75 -24.5h-299q-41 0 -72.5 23.5t-40.5 62.5z" />
<glyph unicode="X" horiz-adv-x="1312" d="M20 0l369 725l-340 688h320l272 -584h31l272 584h320l-340 -688l368 -725h-323l-301 629h-25l-301 -629h-322z" />
<glyph unicode="Y" horiz-adv-x="1245" d="M0 1413h326l235 -518q20 -45 53 -178h21q25 111 51 178l236 518h321l-463 -946v-467h-313v467z" />
<glyph unicode="Z" horiz-adv-x="1193" d="M82 0v240l672 934h-656v239h1000v-239l-672 -934h688v-240h-1032z" />
<glyph unicode="[" horiz-adv-x="708" d="M156 -180v1595q0 70 44 114t113 44h328v-189h-164q-39 0 -39 -38v-1457q0 -39 39 -39h164v-188h-328q-158 0 -157 158z" />
<glyph unicode="\" horiz-adv-x="1128" d="M41 1413h242l804 -1560h-241z" />
<glyph unicode="]" horiz-adv-x="708" d="M68 -150h163q39 0 39 39v1457q0 39 -39 38h-163v189h325q70 0 115 -44t45 -114v-1595q0 -70 -45 -114t-115 -44h-325v188z" />
<glyph unicode="^" horiz-adv-x="946" d="M61 823l304 461h219l301 -461l-119 -65l-283 338h-16l-289 -338z" />
<glyph unicode="_" horiz-adv-x="1140" d="M115 0h911v-199h-911v199z" />
<glyph unicode="`" horiz-adv-x="722" d="M57 1298l140 209l411 -303l-88 -131z" />
<glyph unicode="a" horiz-adv-x="1161" d="M74 266v103q0 121 82 188.5t227 67.5h360v45q-2 78 -35.5 104.5t-129.5 26.5q-168 -1 -426 -17l-29 205q272 49 526 49q205 0 301.5 -83t96.5 -287v-668h-240l-31 154q-152 -178 -373 -179q-145 0 -237 77t-92 214zM373 307q0 -104 119 -104q123 0 251 98v141h-272 q-98 -2 -98 -96v-39z" />
<glyph unicode="b" horiz-adv-x="1212" d="M121 53v1381h305v-322q0 -141 -27 -238q160 164 359 164q197 0 283.5 -121.5t86.5 -402.5q0 -260 -106.5 -399.5t-386.5 -139.5q-123 0 -275.5 20.5t-238.5 57.5zM424 219q85 -19 169 -19q18 0 36 1q104 4 146 69.5t42 241.5q0 168 -34.5 226.5t-145.5 58.5 q-84 0 -213 -86v-492z" />
<glyph unicode="c" horiz-adv-x="1038" d="M82 506q0 293 114.5 412.5t395.5 119.5q229 0 373 -63l-33 -189q-221 4 -289 5q-139 0 -191.5 -59.5t-52.5 -225.5t52.5 -225.5t191.5 -59.5q178 1 309 19l27 -197q-156 -68 -391 -68q-279 0 -392.5 120t-113.5 411z" />
<glyph unicode="d" horiz-adv-x="1216" d="M84 514q0 291 94 407.5t293 116.5q195 0 328 -90q-10 113 -11 211v275h304v-1434h-240l-25 147q-145 -172 -385 -172q-188 0 -273 136.5t-85 402.5zM395 516q0 -174 37 -232.5t131 -58.5q63 0 108 17.5t117 64.5v467q-137 39 -215 39q-102 0 -140 -57.5t-38 -239.5z" />
<glyph unicode="e" horiz-adv-x="1146" d="M82 504q0 297 117.5 415.5t396.5 118.5q252 0 364.5 -87t114.5 -265q0 -141 -72.5 -212t-234.5 -71h-365q14 -111 66.5 -148.5t173.5 -37.5q162 0 377 23l29 -189q-158 -76 -441 -76q-285 0 -405.5 123t-120.5 406zM397 586h287q55 0 74.5 26.5t19.5 77.5 q0 72 -36.5 99.5t-135.5 27.5q-117 0 -160 -46t-49 -185z" />
<glyph unicode="f" horiz-adv-x="827" d="M39 807v192l176 11v153q0 311 332 312q215 0 327 -21l-28 -201h-191q-76 0 -105.5 -28.5t-29.5 -102.5v-112h279v-203h-279v-807h-305v807h-176z" />
<glyph unicode="g" horiz-adv-x="1185" d="M49 -90q0 78 36 128t124 91q-59 57 -59 136q0 15 2 31q14 99 90 144q-150 70 -150 273q0 178 106.5 251.5t370.5 73.5q160 0 265 -28h325l-14 -133l-127 -17q24 -55 24 -138v-7q0 -176 -105.5 -250t-369.5 -74q-88 0 -174 10q-15 -20 -15 -44q0 -14 6 -29q15 -41 69 -47 l366 -43q156 -18 224.5 -90t68.5 -211q0 -193 -115.5 -260.5t-414.5 -67.5q-311 0 -422 64.5t-111 236.5zM338 -51q0 -74 45 -94.5t194.5 -20.5t197.5 21.5t48 89.5q0 53 -31 67.5t-135 26.5l-254 27q-66 -53 -65 -117zM371 715q0 -74 41.5 -102.5t154.5 -28.5 q111 0 153 28.5t42 102.5q0 76 -41 102.5t-153.5 26.5t-154.5 -26.5t-42 -102.5z" />
<glyph unicode="h" horiz-adv-x="1226" d="M125 0v1434h305v-351q0 -104 -18 -211q211 166 413 166q137 0 210 -71.5t73 -208.5v-758h-301v664q0 68 -21.5 93t-76.5 25q-109 0 -281 -92v-690h-303z" />
<glyph unicode="i" horiz-adv-x="565" d="M127 1257v111q0 88 88 88h135q88 0 88 -88v-111q0 -88 -88 -88h-135q-88 0 -88 88zM133 0v1010h301v-1010h-301z" />
<glyph unicode="j" horiz-adv-x="569" d="M10 -270q125 141 125 317v963h301v-963q0 -141 -69.5 -263t-190.5 -187zM129 1266v110q0 88 88 88h133q88 0 88 -88v-110q0 -88 -88 -88h-133q-88 0 -88 88z" />
<glyph unicode="k" horiz-adv-x="1140" d="M125 0v1434h303v-592q0 -100 -14 -185h94l250 353h340l-262 -351q-33 -55 -95 -96v-4q51 -35 95 -108l297 -451h-340l-283 469h-96q14 -92 14 -152v-317h-303z" />
<glyph unicode="l" horiz-adv-x="669" d="M127 254v1180h301v-1104q0 -102 115 -103h82l34 -211q-78 -41 -241 -41q-135 0 -213 73t-78 206z" />
<glyph unicode="m" horiz-adv-x="1798" d="M125 0v1010h242l20 -148q193 176 385 176q205 0 260 -164q178 164 369 164q137 0 208.5 -71.5t71.5 -208.5v-758h-301v664q0 66 -22.5 92t-83.5 26q-49 0 -94 -18.5t-131 -71.5v-692h-291v664q0 66 -25.5 92t-83.5 26q-80 0 -223 -88v-694h-301z" />
<glyph unicode="n" horiz-adv-x="1226" d="M125 0v1010h246l22 -150q219 178 432 178q137 0 210 -71.5t73 -208.5v-758h-301v664q0 68 -21.5 93t-76.5 25q-96 0 -281 -92v-690h-303z" />
<glyph unicode="o" horiz-adv-x="1202" d="M82 504q0 293 117.5 413.5t402.5 120.5q283 0 400.5 -121.5t117.5 -412.5t-117.5 -411t-400.5 -120q-285 0 -402.5 120t-117.5 411zM399 504q0 -180 41 -241.5t162 -61.5q117 0 159 61.5t42 241.5q0 182 -41 244.5t-160 62.5q-121 0 -162 -61.5t-41 -245.5z" />
<glyph unicode="p" horiz-adv-x="1228" d="M125 -389v1399h246l22 -148q63 76 175 125t227 49q348 0 348 -540q0 -291 -93.5 -407t-291.5 -116q-205 0 -338 99q7 -74 7 -153q0 -32 -1 -64v-244h-301zM426 240q160 -41 229 -41q100 0 138 57t38 240q0 178 -34.5 240.5t-122.5 62.5q-101 -1 -248 -97v-462z" />
<glyph unicode="q" horiz-adv-x="1210" d="M82 500q0 270 106.5 404t393.5 134q121 0 271.5 -20.5t236.5 -59.5v-1347h-304v295q0 133 25 229q-178 -162 -366.5 -162t-275.5 129t-87 398zM393 492q0 -150 34 -208.5t134 -58.5q92 0 227 78v490q-94 21 -174 21q-16 0 -32 -1q-109 -4 -149 -69.5t-40 -251.5z" />
<glyph unicode="r" horiz-adv-x="870" d="M125 0v1010h235l27 -148q207 176 410 176h53l-31 -280h-82q-100 0 -309 -70v-688h-303z" />
<glyph unicode="s" horiz-adv-x="1079" d="M76 750q0 158 97 223t333 65q272 -4 467 -39l-21 -194q-258 4 -389 4q-72 0 -99.5 -1t-55 -7t-33.5 -19.5t-6 -40.5q0 -10 1 -18t5 -15.5t7 -11.5t11 -9t13.5 -7t18.5 -7t20.5 -7t27 -7.5t29.5 -7.5l258 -69q135 -39 192.5 -103.5t57.5 -191.5q0 -180 -104.5 -245 t-358.5 -65q-246 0 -453 35l19 197q74 -4 350 -4q158 0 206 13t48 63q0 10 -1 18t-5 15.5t-8.5 11.5t-13.5 9t-14 8t-19.5 8t-22.5 7t-29 7.5t-31 9.5l-251 67q-139 41 -192.5 112t-53.5 196z" />
<glyph unicode="t" horiz-adv-x="841" d="M39 807v192l178 11v282h301v-282h281v-203h-281v-477q0 -57 24.5 -80t86.5 -23h129l33 -211q-117 -41 -285 -41q-137 0 -213 77t-76 214v541h-178z" />
<glyph unicode="u" horiz-adv-x="1208" d="M119 254v756h303v-664v-10q0 -58 22 -82q24 -26 86 -27q88 0 252 84v699h301v-1010h-239l-23 139q-209 -166 -418 -166q-285 0 -284 281z" />
<glyph unicode="v" horiz-adv-x="1153" d="M14 1010h322l182 -633q23 -84 43 -180h27l47 180l182 633h320l-332 -938q-25 -72 -98 -72h-263q-74 0 -98 72z" />
<glyph unicode="w" horiz-adv-x="1734" d="M33 1010h305l137 -656q20 -111 25 -166h26q4 29 13.5 84.5t13.5 81.5l102 566q14 90 105 90h213q41 0 70.5 -24.5t35.5 -67.5l101 -564q4 -29 14 -84t14 -82h25l24 166l140 656h305l-248 -930q-20 -80 -104 -80h-238q-41 0 -71.5 25.5t-36.5 66.5l-103 572q-2 18 -9 77.5 t-13 92.5h-25l-25 -170l-100 -572q-6 -41 -36.5 -66.5t-74.5 -25.5h-233q-84 0 -104 80z" />
<glyph unicode="x" horiz-adv-x="1155" d="M20 0l312 518l-289 492h309l215 -389h21l215 389h309l-289 -492l312 -518h-312l-239 424h-13l-239 -424h-312z" />
<glyph unicode="y" horiz-adv-x="1150" d="M14 1010h324l188 -654q18 -72 31 -151h27q6 25 20 77t21 74l186 654h324l-359 -1024q-29 -82 -70.5 -152t-107.5 -134.5t-163 -95.5q-66 -20 -143 -20q-36 0 -73 4l-24 179q123 33 192.5 85t108.5 140l4 8h-58q-76 0 -98 74z" />
<glyph unicode="z" horiz-adv-x="1075" d="M82 0v217l557 578h-547v215h891v-215l-555 -578h565v-217h-911z" />
<glyph unicode="{" horiz-adv-x="694" d="M70 573v197q43 14 55 18.5t29.5 20.5t19.5 38.5t2 67.5v373q0 158 109 236t336 49v-187q-92 0 -124 -25.5t-32 -100.5v-310q2 -133 -42 -195.5t-169 -82.5q125 -35 171 -96.5t48 -174.5v-430q0 -76 32 -99.5t124 -23.5v-186q-227 -29 -336 48t-109 237v489q0 37 -4 57.5 t-24.5 37t-30.5 20.5z" />
<glyph unicode="|" horiz-adv-x="534" d="M160 -346v1945h213v-1945h-213z" />
<glyph unicode="}" horiz-adv-x="696" d="M68 -152q92 0 123.5 24t31.5 99v430q2 113 48 174.5t171 96.5q-123 20 -168 82.5t-43 195.5v310q0 76 -31.5 101t-123.5 25v187q227 29 335.5 -49t108.5 -236v-373q0 -45 2 -67.5t19.5 -38.5t30 -20.5t55.5 -18.5v-197q-80 -33 -95 -51q-20 -27 -20 -86v-489 q0 -160 -108.5 -237t-335.5 -48v186z" />
<glyph unicode="~" horiz-adv-x="1050" d="M127 444q-23 147 26.5 224t139.5 75q66 -4 227.5 -52t194.5 -52q47 -8 60 12.5t13 81.5h138q23 -145 -25.5 -223t-140.5 -74q-72 2 -231.5 50.5t-192.5 52.5q-47 8 -59.5 -13t-12.5 -82h-137z" />
<glyph unicode="&#xa2;" horiz-adv-x="1067" d="M80 713q0 281 106.5 401.5t360.5 128.5l18 170h228l-21 -180q117 -18 195 -51l-33 -185q-147 8 -291 9q-152 0 -208 -60.5t-56 -232.5t56.5 -232.5t207.5 -60.5q178 0 311 16l27 -186q-139 -59 -324 -66l-20 -184h-227l20 193q-188 29 -269 149.5t-81 370.5z" />
<glyph unicode="&#xa3;" horiz-adv-x="1198" d="M94 823h150l-17 232q-12 225 87.5 304t332.5 79q184 0 422 -21l-16 -233q-88 2 -367 2q-92 0 -126 -31t-28 -113l19 -219h367l-9 -157h-346l6 -86q8 -131 -27.5 -203t-119.5 -139q51 14 156 14h536v-252h-1012v252q176 80 158 328l-6 86h-158z" />
<glyph unicode="&#xa5;" horiz-adv-x="1347" d="M51 1413h322l237 -485q10 -18 56 -180h20q45 158 55 180l232 485h321l-342 -674h209v-192h-966l-2 192h204zM193 483h968v-190h-332v-293h-309v293h-325z" />
<glyph unicode="&#xa7;" horiz-adv-x="1132" d="M98 1139q0 174 108.5 237.5t348.5 63.5q248 0 461 -25l-21 -217q-111 6 -352 6q-121 2 -169 -11t-52 -65q-4 -47 23.5 -76.5t86.5 -60.5l281 -147q162 -82 201 -207t-21 -299h-211q6 123 -23.5 180.5t-129.5 112.5l-324 180q-49 29 -75.5 48.5t-62.5 58t-52.5 93 t-16.5 128.5zM119 -342l20 217q156 -8 353 -8q121 0 169 14.5t50 65.5q6 47 -23 76.5t-86 60.5l-278 147q-164 82 -204 206t19 298h211q-6 -121 25 -178t131 -113l321 -178q47 -27 76 -48t63.5 -60t51 -94.5t16.5 -129.5q0 -178 -109.5 -239.5t-344.5 -61.5q-264 0 -461 25z " />
<glyph unicode="&#xa8;" horiz-adv-x="868" d="M133 1264v118q0 68 66 68h100q66 0 66 -68v-118q0 -68 -66 -68h-100q-66 0 -66 68zM504 1264v118q-1 68 67 68h99q68 0 67 -68v-118q0 -68 -67 -68h-99q-68 0 -67 68z" />
<glyph unicode="&#xa9;" horiz-adv-x="1658" d="M88 706.5q0 317.5 214 525.5t527 208q315 0 528.5 -208t213.5 -525.5t-213 -525.5t-529 -208q-313 0 -527 208t-214 525.5zM242 706.5q0 -251.5 172 -419.5t415 -168q246 0 417 168t171 419.5t-171 419.5t-417 168q-244 0 -415.5 -168t-171.5 -419.5zM440 711 q0 233 90.5 328.5t309.5 95.5q162 0 278 -29l-18 -164q-176 4 -262 4q-98 0 -132 -48t-34 -187q0 -141 32.5 -188.5t133.5 -47.5q198 0 282 8l19 -164q-129 -37 -299 -36q-219 0 -309.5 96t-90.5 332z" />
<glyph unicode="&#xab;" horiz-adv-x="1060" d="M70 481v66l323 405l160 -102l-215 -336l217 -346l-160 -100zM494 481v66l325 405l160 -102l-217 -336l217 -346l-158 -100z" />
<glyph unicode="&#xad;" horiz-adv-x="847" d="M119 422v199h610v-199h-610z" />
<glyph unicode="&#xae;" horiz-adv-x="1071" d="M80 985q0 188 133.5 321.5t323.5 133.5q188 0 321 -133t133 -322q0 -190 -133 -323.5t-321 -133.5q-190 0 -323.5 133.5t-133.5 323.5zM172 985q0 -154 106.5 -261.5t258.5 -107.5q150 0 257 107.5t107 261.5q0 152 -107.5 259.5t-256.5 107.5q-152 0 -258.5 -107.5 t-106.5 -259.5zM334 752v477q68 6 217 6q115 0 163 -30.5t48 -110.5q0 -105 -111 -115v-4q66 -8 82 -76l49 -147h-137l-39 143q-16 39 -61 39h-84v-182h-127zM461 1018h86q51 2 68.5 15.5t17.5 47.5q0 37 -17.5 49.5t-68.5 12.5h-86v-125z" />
<glyph unicode="&#xb0;" horiz-adv-x="704" d="M74 1169.5q0 112.5 81.5 191.5t196.5 79q113 0 196 -79t83 -191.5t-82 -193.5t-196.5 -81t-196.5 81t-82 193.5zM233 1169.5q0 -53.5 35 -88t84 -34.5t84 34.5t35 88t-34 86t-85 32.5t-85 -32.5t-34 -86z" />
<glyph unicode="&#xb4;" horiz-adv-x="722" d="M98 1204l412 303l139 -209l-461 -225z" />
<glyph unicode="&#xb6;" horiz-adv-x="1234" d="M59 922q0 283 149.5 399.5t504.5 116.5q211 0 350 -35v-1403h-201v1249q-90 4 -129 4v-1683h-201v842q-254 23 -363.5 141.5t-109.5 368.5z" />
<glyph unicode="&#xb7;" horiz-adv-x="520" d="M113 479v99q0 59 23.5 82.5t82.5 23.5h82q59 0 83 -23.5t24 -82.5v-99q0 -59 -24 -82.5t-83 -23.5h-82q-59 0 -82.5 23.5t-23.5 82.5z" />
<glyph unicode="&#xb8;" horiz-adv-x="507" d="M49 -487l39 133q168 -4 176 118q2 27 -21.5 33t-107.5 6l29 119q170 18 234.5 -6.5t60.5 -126.5q-6 -150 -121 -224.5t-289 -51.5z" />
<glyph unicode="&#xbb;" horiz-adv-x="1060" d="M82 168l217 346l-215 336l158 102l325 -405v-66l-325 -413zM508 168l217 346l-217 336l160 102l325 -405v-66l-327 -413z" />
<glyph unicode="&#x192;" horiz-adv-x="978" d="M-72 -313l43 202h131q70 0 99.5 29t36.5 100l55 609h-197l15 194l200 8l27 297q31 311 354 312q162 0 264 -21l-45 -203h-137q-70 0 -99.5 -26.5t-35.5 -102.5l-23 -254h242l-18 -204h-242l-59 -647q-27 -313 -349 -314q-162 0 -262 21z" />
<glyph unicode="&#x2c6;" horiz-adv-x="917" d="M78 1212l274 269h219l271 -275l-84 -112l-289 192h-16l-291 -192z" />
<glyph unicode="&#x2da;" horiz-adv-x="632" d="M76 1317q0 100 70.5 168.5t170.5 68.5q98 0 170 -69.5t72 -167.5t-70.5 -166t-171 -68t-171 68t-70.5 166zM215 1317q0 -47 29.5 -76t72.5 -29t73 29t30 76t-30 76.5t-73 29.5q-45 0 -73.5 -29.5t-28.5 -76.5z" />
<glyph unicode="&#x2dc;" horiz-adv-x="901" d="M100 1167q-23 145 28.5 221t137.5 70q72 -6 175.5 -49t150.5 -49q49 -8 64.5 12.5t15.5 75.5h129q23 -139 -26.5 -217t-139.5 -72q-78 6 -185.5 51t-142.5 52q-49 6 -63.5 -15t-14.5 -80h-129z" />
<glyph unicode="&#x401;" horiz-adv-x="1181" d="M133 279v856q0 131 85 207.5t224 76.5q465 0 656 -20l-13 -232h-544q-51 0 -74 -24.5t-23 -79.5v-215h564v-225h-564v-273q0 -57 22.5 -81.5t74.5 -24.5h544l13 -230q-190 -20 -656 -20q-141 0 -225 76.5t-84 208.5zM342 1653v119q0 68 66 67h100q66 0 65 -67v-119 q1 -66 -65 -66h-100q-66 0 -66 66zM713 1653v119q0 68 67 67h99q68 0 67 -67v-119q1 -66 -67 -66h-99q-68 0 -67 66z" />
<glyph unicode="&#x402;" horiz-adv-x="1562" d="M37 1159v254h1153v-254h-420v-332q178 92 373 93q178 0 268 -92.5t90 -342.5q0 -281 -142 -396.5t-401 -108.5l-28 221q145 18 202.5 73.5t57.5 190.5q0 129 -34 165t-130 36q-129 0 -256 -58v-608h-313v1159h-420z" />
<glyph unicode="&#x403;" horiz-adv-x="1091" d="M141 0v1118q0 133 84 217t213 84q442 0 627 -22l-14 -230h-486q-59 0 -84.5 -25.5t-25.5 -86.5v-1055h-314zM438 1610l412 305l139 -211l-461 -223z" />
<glyph unicode="&#x404;" horiz-adv-x="1208" d="M96 706.5q0 403.5 135.5 567.5t468.5 164q244 0 430 -47l-26 -234q-221 10 -404 10q-141 0 -203.5 -70.5t-74.5 -250.5h573v-217h-577q8 -219 68.5 -301t213.5 -82q262 0 414 20l27 -233q-178 -57 -441 -58q-334 0 -469 164t-135 567.5z" />
<glyph unicode="&#x405;" horiz-adv-x="1191" d="M88 1049q0 233 113.5 312t400.5 79q270 0 465 -56l-20 -213q-178 6 -443 7q-123 0 -164 -21.5t-41 -107.5q0 -70 31 -100.5t117 -59.5l268 -92q164 -57 231.5 -156.5t67.5 -259.5q0 -238 -114.5 -323t-409.5 -85q-240 0 -486 54l19 225q436 -10 467 -10q125 0 167 26.5 t42 110.5q0 72 -28.5 101.5t-104.5 54.5l-285 100q-158 57 -225.5 155.5t-67.5 258.5z" />
<glyph unicode="&#x406;" horiz-adv-x="604" d="M147 0v1413h310v-1413h-310z" />
<glyph unicode="&#x407;" horiz-adv-x="604" d="M-2 1628v119q0 68 68 68h98q68 0 67 -68v-119q0 -68 -67 -67h-98q-68 0 -68 67zM147 0v1413h310v-1413h-310zM371 1628v119q-1 68 67 68h99q68 0 67 -68v-119q0 -68 -67 -67h-99q-68 0 -67 67z" />
<glyph unicode="&#x408;" horiz-adv-x="757" d="M41 16l35 209h96q135 0 135 109v1079h311v-1116q0 -154 -83.5 -238t-235.5 -84q-170 0 -258 41z" />
<glyph unicode="&#x409;" horiz-adv-x="1998" d="M33 207q68 18 114 55t82 123q45 102 65.5 248.5t39.5 408.5q2 45 4 68q18 303 332 303h557v-524h192q289 0 400.5 -97.5t111.5 -355.5t-104.5 -355t-353.5 -97q-354 0 -551 16h-2v1188h-175q-98 0 -110 -119q-29 -326 -51.5 -482.5t-67.5 -285.5q-63 -182 -170.5 -249.5 t-290.5 -57.5zM1227 225h192q123 0 160 42t37 177q0 133 -37 179.5t-160 46.5h-192v-445z" />
<glyph unicode="&#x40a;" horiz-adv-x="1998" d="M147 0v1413h312v-539h459v539h309v-539h200q285 0 394.5 -95t109.5 -347q0 -256 -102.5 -352t-345.5 -96q-365 0 -559 16h-6v647h-459v-647h-312zM1227 225h200q117 0 153 41t36 170t-36 174t-153 45h-200v-430z" />
<glyph unicode="&#x40b;" horiz-adv-x="1609" d="M37 1159v254h1153v-254h-420v-319q207 88 395 88q184 0 271.5 -84t87.5 -260v-584h-314v518q0 84 -32.5 115t-124.5 31q-135 0 -283 -52v-612h-313v1159h-420z" />
<glyph unicode="&#x40c;" horiz-adv-x="1306" d="M147 0v1413h312v-399q0 -80 -17 -168h97q145 0 209.5 110.5t158.5 436.5q4 14 6 20h318q-115 -360 -146 -428q-72 -160 -180 -211q-51 -23 -123 -33v-8q39 -6 72 -13t62.5 -23.5t52 -29t46 -44t39 -50t37 -67.5t34 -77t36 -97.5t35.5 -107.5t41 -128q20 -63 31 -96h-326 q-115 375 -156 459q-63 129 -159 153q-37 10 -84 11h-101q16 -76 17 -136v-487h-312zM498 1610l413 305l138 -211l-461 -223z" />
<glyph unicode="&#x40d;" horiz-adv-x="1456" d="M147 0v1413h297v-829q0 -88 -16 -197h12q27 78 82 184l477 842h310v-1413h-299v844q0 94 18 190h-14q-31 -94 -80 -186l-477 -848h-310zM336 1704l137 211l412 -305l-88 -129z" />
<glyph unicode="&#x40e;" horiz-adv-x="1212" d="M14 1413h320l223 -747q6 -25 37 -25h51l244 772h319l-346 -1048q-61 -186 -139 -279.5t-217 -106t-340 30.5l35 221q199 -10 253 7.5t93 117.5l16 45h-76q-137 0 -182 142zM272 1825l144 20q0 -131 194 -131q191 0 191 131l143 -20q16 -129 -77 -219t-257 -90 q-166 0 -260 90t-78 219z" />
<glyph unicode="&#x40f;" horiz-adv-x="1421" d="M147 0v1413h312v-1188h504v1188h313v-1413h-438l-13 -309h-213l-14 309h-451z" />
<glyph unicode="&#x410;" horiz-adv-x="1331" d="M2 0l408 1331q8 37 38.5 59.5t69.5 22.5h295q88 0 109 -82l407 -1331h-317l-103 371h-485l-102 -371h-320zM489 612h353l-119 432q-25 102 -29 134h-55q-4 -20 -14.5 -65.5t-16.5 -68.5z" />
<glyph unicode="&#x411;" horiz-adv-x="1267" d="M145 0v1413q229 14 482 14q205 0 481 -14l-25 -239h-624v-334h215q293 0 407.5 -93.5t114.5 -336.5q0 -137 -30.5 -223.5t-102.5 -130.5t-160 -59t-231 -15q-295 0 -518 18h-9zM459 221h215q129 0 169 39t40 162q0 121 -40 163t-169 42h-215v-406z" />
<glyph unicode="&#x412;" horiz-adv-x="1308" d="M145 0v1413q184 16 533 17q281 0 389.5 -77t108.5 -292q0 -154 -57.5 -233t-188.5 -91v-8q158 -14 224.5 -107.5t66.5 -269.5q0 -213 -108.5 -290.5t-369.5 -77.5q-391 0 -598 16zM451 219h237q131 0 176 38t45 155q0 127 -47 171t-180 46h-231v-410zM451 836h229 q113 0 155 36.5t42 145.5q0 106 -44.5 141t-170.5 35l-211 2v-360z" />
<glyph unicode="&#x413;" horiz-adv-x="1091" d="M141 0v1118q0 133 84 217t213 84q442 0 627 -22l-14 -230h-486q-59 0 -84.5 -25.5t-25.5 -86.5v-1055h-314z" />
<glyph unicode="&#x414;" horiz-adv-x="1509" d="M35 225h149q145 362 185 893q10 133 98 214t231 81h580v-1188h184v-534h-221l-24 309h-936l-25 -309h-221v534zM477 225h490v963h-183q-61 0 -88.5 -27.5t-31.5 -93.5q-25 -297 -66 -487.5t-121 -354.5z" />
<glyph unicode="&#x415;" horiz-adv-x="1181" d="M133 279v856q0 131 85 207.5t224 76.5q465 0 656 -20l-13 -232h-544q-51 0 -74 -24.5t-23 -79.5v-215h564v-225h-564v-273q0 -57 22.5 -81.5t74.5 -24.5h544l13 -230q-190 -20 -656 -20q-141 0 -225 76.5t-84 208.5z" />
<glyph unicode="&#x416;" horiz-adv-x="1921" d="M39 0q123 399 168 494q72 158 186 206q51 23 125 33v8q-51 6 -93 22.5t-72.5 35t-59.5 59.5t-48.5 73t-45 102.5t-41 118.5t-45.5 148q-23 74 -35 113h317q111 -348 152 -428q84 -131 182 -139h100q-16 88 -16 168v399h299v-399q0 -80 -16 -168h92q109 0 164 100.5 t151 396.5q14 45 23 70h317q-113 -360 -145 -434q-70 -158 -180 -207q-49 -23 -115 -31v-8q186 -25 261 -145.5t198 -524.5q14 -41 20 -63h-328q-129 393 -163 471q-59 123 -142 143q-27 8 -59 9h-94q16 -76 16 -136v-487h-299v487q0 59 16 136h-100q-113 0 -168 -97.5 t-162 -423.5q-20 -66 -32 -102h-328z" />
<glyph unicode="&#x417;" horiz-adv-x="1157" d="M59 45l23 215q246 -39 459 -39q121 0 162.5 38t41.5 153q0 123 -44 166t-169 47h-272v219h270q106 0 145.5 35.5t39.5 138.5q0 104 -42 139t-157 35q-159 0 -403 -27l-25 226q184 39 449 39q274 0 380.5 -77t106.5 -292q0 -154 -57.5 -232.5t-184.5 -91.5v-8 q154 -14 219.5 -107.5t65.5 -269.5q0 -211 -106.5 -289.5t-360.5 -78.5q-328 0 -541 61z" />
<glyph unicode="&#x418;" horiz-adv-x="1456" d="M147 0v1413h297v-829q0 -88 -16 -197h12q27 78 82 184l477 842h310v-1413h-299v844q0 94 18 190h-14q-31 -94 -80 -186l-477 -848h-310z" />
<glyph unicode="&#x419;" horiz-adv-x="1456" d="M147 0v1413h297v-829q0 -88 -16 -197h12q27 78 82 184l477 842h310v-1413h-299v844q0 94 18 190h-14q-31 -94 -80 -186l-477 -848h-310zM401 1833h201q-8 -168 137 -168q141 0 133 168h201q16 -131 -76 -224t-258 -93t-260 93t-78 224z" />
<glyph unicode="&#x41a;" horiz-adv-x="1306" d="M147 0v1413h312v-399q0 -80 -17 -168h97q145 0 209.5 110.5t158.5 436.5q4 14 6 20h318q-115 -360 -146 -428q-72 -160 -180 -211q-51 -23 -123 -33v-8q39 -6 72 -13t62.5 -23.5t52 -29t46 -44t39 -50t37 -67.5t34 -77t36 -97.5t35.5 -107.5t41 -128q20 -63 31 -96h-326 q-115 375 -156 459q-63 129 -159 153q-37 10 -84 11h-101q16 -76 17 -136v-487h-312z" />
<glyph unicode="&#x41b;" horiz-adv-x="1388" d="M8 236q80 14 128 46.5t75 102.5q41 109 63.5 263.5t47.5 457.5q23 307 331 307h590v-1413h-313v1188h-180q-121 0 -129 -119q-27 -317 -50.5 -483t-70.5 -285q-125 -348 -469 -307z" />
<glyph unicode="&#x41c;" horiz-adv-x="1871" d="M121 0l51 1296q4 117 117 117h301q98 0 123 -100l172 -705q8 -41 21.5 -114.5t15.5 -83.5h26q2 10 15.5 83.5t21.5 114.5l170 705q23 100 127 100h301q111 0 117 -117l53 -1296h-295l-45 1169h-37l-213 -874q-20 -100 -125 -100h-204q-104 0 -129 100l-216 874h-34 l-41 -1169h-293z" />
<glyph unicode="&#x41d;" horiz-adv-x="1417" d="M147 0v1413h312v-541h497v541h314v-1413h-314v631h-497v-631h-312z" />
<glyph unicode="&#x41e;" horiz-adv-x="1400" d="M96 706.5q0 419.5 132 576.5t472 157t473.5 -157t133.5 -576.5t-133.5 -576.5t-473.5 -157t-472 157t-132 576.5zM424 706.5q0 -280.5 58.5 -381t218 -100.5t218 100.5t58.5 381t-58.5 381t-218 100.5t-218 -100.5t-58.5 -381z" />
<glyph unicode="&#x41f;" horiz-adv-x="1413" d="M147 0v1413h1119v-1413h-312v1188h-495v-1188h-312z" />
<glyph unicode="&#x420;" horiz-adv-x="1261" d="M145 0v1413q190 18 539 19q295 0 404.5 -96.5t109.5 -365t-103.5 -365.5t-369.5 -97q-135 0 -266 16v-524h-314zM459 748h217q123 2 166 47t43 176t-43 176t-166 45l-217 -2v-442z" />
<glyph unicode="&#x421;" horiz-adv-x="1200" d="M96 706.5q0 403.5 133 567.5t461 164q238 0 424 -47l-27 -234q-166 10 -397 10q-154 0 -210 -97t-56 -363.5t56.5 -363.5t209.5 -97q285 0 426 18l27 -231q-184 -57 -453 -58q-328 0 -461 164t-133 567.5z" />
<glyph unicode="&#x422;" horiz-adv-x="1230" d="M37 1159v254h1157v-254h-422v-1159h-313v1159h-422z" />
<glyph unicode="&#x423;" horiz-adv-x="1212" d="M14 1413h320l223 -747q6 -25 37 -25h51l244 772h319l-346 -1048q-61 -186 -139 -279.5t-217 -106t-340 30.5l35 221q199 -10 253 7.5t93 117.5l16 45h-76q-137 0 -182 142z" />
<glyph unicode="&#x424;" horiz-adv-x="1726" d="M66 723q0 319 143 453.5t498 152.5v184h313v-184q354 -18 497.5 -152.5t145.5 -453.5q-2 -309 -144.5 -440t-498.5 -152v-184h-313v184q-354 18 -497.5 150.5t-143.5 441.5zM381 723q0 -193 69.5 -266.5t270.5 -87.5v723q-201 -12 -270.5 -89t-69.5 -280zM1006 369 q201 14 270.5 88.5t69.5 265.5q0 201 -69.5 278t-270.5 91v-723z" />
<glyph unicode="&#x425;" horiz-adv-x="1312" d="M20 0l369 725l-340 688h320l272 -584h31l272 584h320l-340 -688l368 -725h-323l-301 629h-25l-301 -629h-322z" />
<glyph unicode="&#x426;" horiz-adv-x="1458" d="M147 0v1413h312v-1188h471v1188h313v-1188h168v-534h-221l-25 309h-1018z" />
<glyph unicode="&#x427;" horiz-adv-x="1345" d="M98 821v592h312v-524q-2 -80 32.5 -113t124.5 -33q158 0 320 64v606h311v-1413h-311v586q-219 -106 -432 -107q-182 0 -269.5 83t-87.5 259z" />
<glyph unicode="&#x428;" horiz-adv-x="1988" d="M147 0v1413h306v-1188h389v1188h305v-1188h389v1188h305v-1413h-1694z" />
<glyph unicode="&#x429;" horiz-adv-x="2045" d="M147 0v1413h306v-1188h385v1188h303v-1188h387v1188h303v-1188h166v-534h-219l-25 309h-1606z" />
<glyph unicode="&#x42a;" horiz-adv-x="1562" d="M35 1159v254h747v-524h201q291 0 401.5 -98.5t110.5 -358.5q0 -256 -104.5 -352t-354.5 -96q-367 0 -563 16h-4v1159h-434zM782 225h201q123 0 161 42t38 175t-38 180.5t-161 47.5h-201v-445z" />
<glyph unicode="&#x42b;" horiz-adv-x="1837" d="M147 0v1413h312v-524h205q291 0 402.5 -98.5t111.5 -358.5q0 -256 -104.5 -352t-356.5 -96q-367 0 -561 16h-9zM459 225h205q125 0 161.5 42t36.5 175t-38 180.5t-160 47.5h-205v-445zM1378 0v1413h312v-1413h-312z" />
<glyph unicode="&#x42c;" horiz-adv-x="1251" d="M147 0v1413h312v-524h209q291 0 402.5 -98.5t111.5 -358.5q0 -256 -104.5 -352t-356.5 -96q-371 0 -565 16h-9zM459 225h209q125 0 162.5 42t37.5 175t-37.5 180.5t-162.5 47.5h-209v-445z" />
<glyph unicode="&#x42d;" horiz-adv-x="1208" d="M68 33l26 233q152 -20 414 -20q154 0 214 82t69 301h-578v217h573q-12 180 -74.5 250.5t-203.5 70.5q-183 0 -404 -10l-26 234q186 47 430 47q334 0 469 -164t135 -567.5t-135 -567.5t-469 -164q-262 0 -440 58z" />
<glyph unicode="&#x42e;" horiz-adv-x="1988" d="M147 0v1413h314v-569h262q18 338 145 467t420 129q338 0 471 -157t133 -576.5t-133 -576.5t-471 -157q-303 0 -429 139.5t-138 505.5h-260v-618h-314zM1026 706.5q0 -280.5 54 -381t208 -100.5q158 0 215.5 100.5t59.5 381.5q-2 281 -59.5 381t-215.5 100 q-154 0 -208 -100.5t-54 -381z" />
<glyph unicode="&#x42f;" horiz-adv-x="1300" d="M59 0l115 432q41 176 213 209l-2 12q-145 18 -207.5 107.5t-62.5 253.5q0 229 117.5 323.5t390.5 94.5q344 0 532 -19v-1413h-311v543h-207q-119 0 -145 -121l-105 -422h-328zM428 993q0 -117 44 -164t159 -47h213v408l-213 2q-117 0 -159 -41t-44 -158z" />
<glyph unicode="&#x430;" horiz-adv-x="1169" d="M78 266v103q0 121 82 188.5t227 67.5h361v45q-2 76 -36 103.5t-130 27.5q-166 -1 -428 -17l-27 205q272 49 524 49q205 0 302.5 -83t97.5 -287v-668h-240l-31 154q-152 -178 -374 -179q-145 0 -236.5 77t-91.5 214zM377 307q0 -104 117 -104q121 0 254 98v141h-273 q-98 -2 -98 -96v-39z" />
<glyph unicode="&#x431;" horiz-adv-x="1214" d="M109 621q0 166 14 279.5t53 217t114 171t191 104.5q76 25 257.5 47.5t283.5 75.5l55 -234q-82 -47 -164 -63.5t-174 -23.5t-155 -26q-168 -45 -219 -206q-18 -49 -35 -150h6q59 80 140 122t226 42q233 0 329.5 -111.5t96.5 -367.5q0 -268 -111.5 -395.5t-389.5 -127.5 q-104 0 -184.5 17.5t-134.5 45.5t-92 78t-59.5 97t-31.5 122t-13 134t-3 152zM422 498q0 -174 41 -235.5t153.5 -61.5t153.5 60.5t41 234.5q0 164 -37.5 218t-148.5 54q-125 0 -164 -58.5t-39 -211.5z" />
<glyph unicode="&#x432;" horiz-adv-x="1167" d="M127 -4v1014q174 12 483 12q250 0 346.5 -56.5t96.5 -211.5q0 -109 -52.5 -165.5t-169.5 -64.5v-8q139 -10 199 -75.5t60 -190.5q0 -152 -96.5 -209t-325.5 -57q-346 0 -541 12zM412 195h204q98 0 135 23.5t37 94.5q0 68 -38.5 93.5t-139.5 25.5h-198v-237zM412 608h198 q92 0 126 22.5t34 86.5q0 57 -37 77.5t-137 20.5l-184 2v-209z" />
<glyph unicode="&#x433;" horiz-adv-x="983" d="M123 0v778q0 244 260 244q406 0 571 -27l-12 -211h-426q-49 0 -70.5 -21.5t-21.5 -70.5v-692h-301z" />
<glyph unicode="&#x434;" horiz-adv-x="1288" d="M43 217h127q90 231 125 547q25 246 289 246h495v-793h160v-506h-199l-22 289h-756l-20 -289h-199v506zM436 217h359v588h-131q-92 0 -103 -96q-35 -301 -125 -492z" />
<glyph unicode="&#x435;" horiz-adv-x="1153" d="M84 504q0 295 119 414.5t395 119.5q252 0 364.5 -87t114.5 -265q0 -141 -72.5 -212t-234.5 -71h-364q14 -111 67 -148.5t172 -37.5q162 0 377 23l29 -189q-158 -76 -441 -76q-285 0 -405.5 123t-120.5 406zM399 586h287q57 0 75.5 26.5t18.5 77.5q0 72 -36.5 99.5 t-135.5 27.5q-117 0 -160 -46t-49 -185z" />
<glyph unicode="&#x436;" horiz-adv-x="1683" d="M43 0q33 100 47 145t39 112t37 90.5t36.5 61t43 49t49.5 30t62.5 24.5t78.5 12v8q-152 18 -205 89t-137 325q-12 41 -20 64h297q84 -244 127 -313.5t131 -69.5h94q-12 57 -12 121v262h266v-262q0 -63 -12 -121h88q90 0 131 67.5t127 315.5h299q-94 -283 -127 -344 q-53 -92 -154 -119q-33 -9 -80 -15v-8q45 -6 77 -13t62.5 -23.5t50 -30t43 -49t37 -62.5t37 -89t39 -111.5t45.5 -145.5h-305q-100 287 -141 354.5t-129 67.5h-100q12 -45 12 -88v-334h-266v334q0 37 10 88h-105q-84 0 -123.5 -66.5t-144.5 -355.5h-305z" />
<glyph unicode="&#x437;" horiz-adv-x="1058" d="M59 16l21 209q221 -20 409 -20q109 0 144 19.5t35 86.5q0 61 -36 81t-140 22l-291 4v190l288 4q90 0 122 19.5t32 81.5q0 55 -37 71.5t-147 16.5q-188 -1 -348 -21l-21 209q150 45 354 45q281 0 387.5 -53t106.5 -221q0 -117 -49 -172.5t-166 -63.5v-8 q135 -10 195.5 -74.5t60.5 -189.5q0 -168 -105.5 -222.5t-361.5 -54.5q-262 0 -453 41z" />
<glyph unicode="&#x438;" d="M129 0v1010h268v-539q0 -57 -10 -149h6q27 68 76 137l385 551h258v-1012h-270v528q0 59 10 162h-8q-23 -74 -76 -149l-381 -539h-258z" />
<glyph unicode="&#x439;" d="M129 0v1010h268v-539q0 -57 -10 -149h6q27 68 76 137l385 551h258v-1012h-270v528q0 59 10 162h-8q-23 -74 -76 -149l-381 -539h-258zM283 1458h200q-8 -168 138 -168q141 0 133 168h200q16 -129 -77 -223t-256 -94q-166 0 -261.5 94t-76.5 223z" />
<glyph unicode="&#x43a;" horiz-adv-x="1155" d="M129 0v1010h301v-258q0 -61 -12 -123h76q117 0 161.5 66.5t116.5 314.5h307q-94 -285 -127 -344q-49 -90 -145 -117q-35 -11 -88 -19v-8q61 -8 100 -17t76 -38t56.5 -53.5t50 -95t50 -130t60.5 -188.5h-315q-90 287 -133 352.5t-152 65.5h-92q10 -51 10 -86v-332h-301z " />
<glyph unicode="&#x43b;" horiz-adv-x="1210" d="M25 215q84 14 119.5 33.5t52.5 75.5q39 115 65 430q25 256 281 256h538v-1010h-303v799h-131q-51 0 -74.5 -22.5t-31.5 -78.5q-43 -340 -74 -458q-61 -291 -412 -250z" />
<glyph unicode="&#x43c;" horiz-adv-x="1603" d="M113 0l30 905q0 104 107 105h270q94 0 113 -95l127 -446q10 -39 28 -150h23q2 10 11 65.5t18 84.5l125 446q18 95 114 95h275q102 0 106 -105l33 -905h-276l-29 788h-29l-164 -565q-23 -94 -112 -94h-164q-94 0 -117 94l-162 565h-28l-25 -788h-274z" />
<glyph unicode="&#x43d;" horiz-adv-x="1236" d="M129 0v1010h299v-371h383v371h297v-1010h-297v428h-383v-428h-299z" />
<glyph unicode="&#x43e;" horiz-adv-x="1206" d="M84 504q0 293 117.5 413.5t402.5 120.5t401.5 -120.5t116.5 -413.5q0 -291 -116.5 -411t-401.5 -120t-402.5 120t-117.5 411zM401 504q0 -180 41 -241.5t162 -61.5q119 0 161 61.5t42 241.5q0 182 -42 244.5t-161 62.5q-121 0 -162 -61.5t-41 -245.5z" />
<glyph unicode="&#x43f;" horiz-adv-x="1218" d="M129 0v1012h961v-1012h-293v795h-373v-795h-295z" />
<glyph unicode="&#x440;" horiz-adv-x="1234" d="M129 -389v1399h246l22 -148q63 76 175 125t227 49q350 0 350 -540q0 -291 -94 -407t-293 -116q-205 0 -338 99q10 -104 6 -217v-244h-301zM430 240q160 -41 229 -41q102 0 140.5 57t38.5 240q0 178 -35 240.5t-123 62.5q-103 -1 -250 -97v-462z" />
<glyph unicode="&#x441;" horiz-adv-x="1042" d="M84 506q0 293 114.5 412.5t395.5 119.5q229 0 373 -63l-33 -189q-221 4 -289 5q-139 0 -191.5 -59.5t-52.5 -225.5t52.5 -225.5t191.5 -59.5q180 1 309 19l29 -197q-158 -68 -393 -68q-279 0 -392.5 120t-113.5 411z" />
<glyph unicode="&#x442;" horiz-adv-x="1050" d="M41 776v234h971v-234h-336v-776h-299v776h-336z" />
<glyph unicode="&#x443;" horiz-adv-x="1157" d="M18 1010h322l188 -654q25 -94 33 -151h25q33 117 41 151l186 654h324l-359 -1024q-80 -250 -276 -351q-152 -86 -414 -41l25 201q186 -6 264 41q80 47 127 164h-58q-78 0 -100 74z" />
<glyph unicode="&#x444;" horiz-adv-x="1531" d="M82 504q0 264 126 387t421 143v400h272v-400q295 -20 421 -143t126 -387q0 -262 -126 -383t-421 -141v-369h-272v369q-295 20 -421 141t-126 383zM371 504q0 -160 58 -225.5t212 -79.5v616q-154 -14 -212 -81.5t-58 -229.5zM889 199q154 14 212 79.5t58 225.5 q0 162 -58 229.5t-212 81.5v-616z" />
<glyph unicode="&#x445;" horiz-adv-x="1159" d="M23 0l311 518l-287 492h309l215 -389h19l215 389h309l-287 -492l310 -518h-312l-239 424h-13l-239 -424h-311z" />
<glyph unicode="&#x446;" horiz-adv-x="1280" d="M129 0v1010h299v-793h350v793h299v-793h154v-506h-201l-22 289h-879z" />
<glyph unicode="&#x447;" horiz-adv-x="1161" d="M88 549v461h299v-367q0 -53 23.5 -74.5t81.5 -21.5q117 0 237 43v420h299v-1010h-299v377q-174 -59 -340 -60q-301 0 -301 232z" />
<glyph unicode="&#x448;" horiz-adv-x="1712" d="M129 0v1010h291v-793h303v793h266v-793h303v793h291v-1010h-1454z" />
<glyph unicode="&#x449;" horiz-adv-x="1785" d="M129 0v1010h291v-793h301v793h268v-793h301v793h293v-793h152v-506h-199l-25 289h-1382z" />
<glyph unicode="&#x44a;" horiz-adv-x="1339" d="M39 786v224h629v-351h149q264 0 362.5 -70.5t98.5 -264.5q0 -190 -95.5 -263t-316.5 -73q-311 0 -485 12h-4v786h-338zM668 201h149q92 0 124 26.5t32 108.5q0 78 -32 105.5t-124 27.5h-149v-268z" />
<glyph unicode="&#x44b;" horiz-adv-x="1595" d="M129 0v1010h291v-351h151q266 0 364.5 -70.5t98.5 -264.5q0 -190 -94 -263t-315 -73q-313 0 -488 12h-8zM420 201h151q94 0 126 25.5t32 109.5q0 80 -31.5 106.5t-126.5 26.5h-151v-268zM1163 0v1010h303v-1010h-303z" />
<glyph unicode="&#x44c;" horiz-adv-x="1099" d="M129 0v1010h291v-351h155q266 0 364.5 -70.5t98.5 -264.5q0 -190 -95 -263t-316 -73q-315 0 -490 12h-8zM420 201h155q94 0 126 25.5t32 109.5q0 80 -31.5 106.5t-126.5 26.5h-155v-268z" />
<glyph unicode="&#x44d;" horiz-adv-x="1093" d="M66 29l24 196q188 -10 373 -10q131 0 181 40t58 165h-507v186h505q-14 111 -65 150t-172 37q-121 -1 -363 -5l-24 193q154 51 387 51q303 0 425 -117.5t122 -414.5q0 -291 -123 -408t-424 -117q-240 0 -397 54z" />
<glyph unicode="&#x44e;" horiz-adv-x="1701" d="M129 0v1010h301v-385h199q18 238 124.5 325.5t352.5 87.5q287 0 398.5 -110.5t111.5 -423.5q0 -305 -112.5 -414.5t-397.5 -109.5q-252 0 -358.5 92t-120.5 340h-197v-412h-301zM905 508q0 -174 39 -232.5t158 -58.5t160 58.5t41 232.5q0 176 -41 234.5t-160 58.5 t-158 -58.5t-39 -234.5z" />
<glyph unicode="&#x44f;" horiz-adv-x="1155" d="M51 0l86 313q29 101 193 117v10q-221 41 -221 273q0 178 90 247.5t342 69.5q340 0 487 -14v-1016h-295v344h-186q-102 0 -117 -74l-68 -270h-311zM403 684q0 -86 27 -113.5t117 -27.5h186v264h-186q-90 0 -117 -23.5t-27 -99.5z" />
<glyph unicode="&#x451;" horiz-adv-x="1153" d="M84 504q0 295 119 414.5t395 119.5q252 0 364.5 -87t114.5 -265q0 -141 -72.5 -212t-234.5 -71h-364q14 -111 67 -148.5t172 -37.5q162 0 377 23l29 -189q-158 -76 -441 -76q-285 0 -405.5 123t-120.5 406zM299 1255v119q0 68 66 68h100q66 0 65 -68v-119q1 -67 -65 -67 h-100q-66 0 -66 67zM399 586h287q57 0 75.5 26.5t18.5 77.5q0 72 -36.5 99.5t-135.5 27.5q-117 0 -160 -46t-49 -185zM670 1255v119q0 68 67 68h101q66 0 65 -68v-119q1 -67 -65 -67h-101q-68 0 -67 67z" />
<glyph unicode="&#x452;" d="M39 983v147h137v304h301v-304h352v-147h-350v-92q0 -96 -14 -193q199 147 405 148q287 0 287 -281v-565h-305v473q0 63 -25.5 87t-95.5 24q-102 0 -254 -72v-512h-301v983h-137z" />
<glyph unicode="&#x453;" horiz-adv-x="983" d="M123 0v778q0 244 260 244q406 0 571 -27l-12 -211h-426q-49 0 -70.5 -21.5t-21.5 -70.5v-692h-301zM369 1237l411 303l140 -209l-463 -225z" />
<glyph unicode="&#x454;" horiz-adv-x="1093" d="M84 500q0 297 122 414.5t425 117.5q242 0 389 -51l-27 -193q-238 4 -362 5q-121 2 -172 -37t-64 -150h506v-186h-510q10 -125 61.5 -165t178.5 -40q189 0 373 10l24 -196q-158 -53 -397 -54q-301 0 -424 117t-123 408z" />
<glyph unicode="&#x455;" horiz-adv-x="1085" d="M80 750q0 158 96 223t332 65q270 -4 469 -39l-21 -194q-262 4 -391 4q-72 0 -99.5 -1t-55 -7t-33.5 -19.5t-6 -40.5q0 -10 1 -18t5 -15.5t7 -11.5t11 -9t13.5 -7t18.5 -7t20.5 -7t27 -7.5t29.5 -7.5l258 -69q135 -39 192.5 -103.5t57.5 -191.5q0 -180 -104.5 -245 t-358.5 -65q-246 0 -453 35l19 197q74 -4 350 -4q158 0 206 13t48 63q0 10 -1 18t-5 15.5t-8.5 11.5t-13.5 9t-14 8t-19.5 8t-22.5 7t-29 7.5t-31 9.5l-251 67q-137 41 -190.5 112t-53.5 196z" />
<glyph unicode="&#x456;" horiz-adv-x="575" d="M133 1257v111q0 88 88 88h133q88 0 88 -88v-111q0 -88 -88 -88h-133q-88 0 -88 88zM137 0v1010h301v-1010h-301z" />
<glyph unicode="&#x457;" horiz-adv-x="577" d="M-14 1255v119q-1 68 65 68h101q66 0 65 -68v-119q0 -68 -65 -67h-101q-66 0 -65 67zM137 0v1010h303v-1010h-303zM356 1255v119q0 68 68 68h100q66 0 66 -68v-119q0 -68 -66 -67h-100q-68 0 -68 67z" />
<glyph unicode="&#x458;" horiz-adv-x="577" d="M14 -270q123 139 123 317v963h303v-963q0 -141 -69.5 -263t-190.5 -187zM131 1266v110q0 88 88 88h135q88 0 88 -88v-110q0 -88 -88 -88h-135q-88 0 -88 88z" />
<glyph unicode="&#x459;" horiz-adv-x="1691" d="M43 199q41 8 64.5 15t53 32.5t46.5 66.5q39 94 82 463q25 233 266 234h475v-353h146q260 0 357 -71.5t97 -263.5q0 -190 -93 -262t-312 -72q-256 0 -471 12h-4v811h-101q-51 0 -72.5 -19.5t-27.5 -70.5q-41 -354 -88 -492q-47 -143 -151.5 -200.5t-246.5 -36.5zM1030 197 h146q94 0 125.5 26.5t31.5 108.5q0 80 -31.5 107.5t-125.5 27.5h-146v-270z" />
<glyph unicode="&#x45a;" horiz-adv-x="1689" d="M129 0v1010h277v-365h339v365h283v-367h156q256 0 350 -67.5t94 -253.5q0 -190 -91 -262t-306 -72q-309 0 -481 12h-5v449h-339v-449h-277zM1028 197h156q88 0 118.5 26.5t30.5 104.5q0 76 -29.5 102.5t-119.5 26.5h-156v-260z" />
<glyph unicode="&#x45b;" d="M39 983v147h137v304h301v-304h352v-147h-350v-92q0 -96 -14 -193q199 147 405 148q283 0 287 -281v-518q0 -141 -67.5 -263t-184.5 -187l-170 133q117 135 117 317v426q0 61 -26.5 86t-94.5 25q-102 0 -254 -72v-512h-301v983h-137z" />
<glyph unicode="&#x45c;" horiz-adv-x="1155" d="M129 0v1010h301v-258q0 -61 -12 -123h76q117 0 161.5 66.5t116.5 314.5h307q-94 -285 -127 -344q-49 -90 -145 -117q-35 -11 -88 -19v-8q61 -8 100 -17t76 -38t56.5 -53.5t50 -95t50 -130t60.5 -188.5h-315q-90 287 -133 352.5t-152 65.5h-92q10 -51 10 -86v-332h-301z M428 1237l412 303l139 -209l-461 -225z" />
<glyph unicode="&#x45d;" d="M129 0v1010h268v-539q0 -57 -10 -149h6q27 68 76 137l385 551h258v-1012h-270v528q0 59 10 162h-8q-23 -74 -76 -149l-381 -539h-258zM215 1331l139 209l412 -303l-90 -131z" />
<glyph unicode="&#x45e;" horiz-adv-x="1157" d="M18 1010h322l188 -654q25 -94 33 -151h25q33 117 41 151l186 654h324l-359 -1024q-80 -250 -276 -351q-152 -86 -414 -41l25 201q186 -6 264 41q80 47 127 164h-58q-78 0 -100 74zM238 1458h200q-8 -168 137 -168q142 0 134 168h200q16 -129 -77 -222t-256.5 -93t-259 93 t-78.5 222z" />
<glyph unicode="&#x45f;" horiz-adv-x="1230" d="M129 0v1010h301v-793h373v793h299v-1010h-367l-20 -334h-201l-22 334h-363z" />
<glyph unicode="&#x490;" horiz-adv-x="1101" d="M141 0v1118q0 133 84 217t213 84q272 0 404 -8l28 313h205v-340l-14 -217h-496q-59 0 -84.5 -25.5t-25.5 -86.5v-1055h-314z" />
<glyph unicode="&#x491;" horiz-adv-x="985" d="M125 0v778q0 244 258 244q236 0 350 -6l27 291h196v-312l-14 -211h-424q-51 0 -72.5 -21.5t-21.5 -70.5v-692h-299z" />
<glyph unicode="&#x4b0;" horiz-adv-x="1261" d="M10 1413h326l233 -518q20 -45 54 -178h20q33 133 53 178l234 518h323l-403 -821h225v-166h-287v-426h-311v426h-289v166h228z" />
<glyph unicode="&#x4b1;" horiz-adv-x="1261" d="M12 1010h324l233 -508q10 -25 19.5 -54.5t19.5 -69.5t15 -56h18q35 137 53 180l232 508h325l-403 -813h227v-185h-287v-401h-313v401h-287v185h226z" />
<glyph unicode="&#x4b6;" horiz-adv-x="1421" d="M98 821v592h314v-524q-4 -82 31.5 -115t127.5 -33q154 0 314 64v608h313v-1204h178v-518h-219l-27 309h-245v580q-221 -100 -426 -101q-186 0 -273.5 83t-87.5 259z" />
<glyph unicode="&#x4b7;" horiz-adv-x="1228" d="M88 549v461h299v-367q0 -53 23.5 -74.5t78.5 -21.5q117 0 236 43v420h299v-793h156v-506h-201l-23 289h-231v377q-174 -59 -338 -60q-299 0 -299 232z" />
<glyph unicode="&#x4ba;" horiz-adv-x="1345" d="M147 0v1413h312v-579q219 100 428 100q186 0 274 -83t88 -259v-592h-313v524q2 82 -34 115t-128 33q-160 0 -315 -64v-608h-312z" />
<glyph unicode="&#x4c0;" horiz-adv-x="606" d="M147 0v1413h312v-1413h-312z" />
<glyph unicode="&#x2000;" horiz-adv-x="957" />
<glyph unicode="&#x2001;" horiz-adv-x="1915" />
<glyph unicode="&#x2002;" horiz-adv-x="957" />
<glyph unicode="&#x2003;" horiz-adv-x="1915" />
<glyph unicode="&#x2004;" horiz-adv-x="638" />
<glyph unicode="&#x2005;" horiz-adv-x="478" />
<glyph unicode="&#x2006;" horiz-adv-x="319" />
<glyph unicode="&#x2007;" horiz-adv-x="319" />
<glyph unicode="&#x2008;" horiz-adv-x="239" />
<glyph unicode="&#x2009;" horiz-adv-x="383" />
<glyph unicode="&#x200a;" horiz-adv-x="106" />
<glyph unicode="&#x2010;" horiz-adv-x="847" d="M119 422v199h610v-199h-610z" />
<glyph unicode="&#x2011;" horiz-adv-x="847" d="M119 422v199h610v-199h-610z" />
<glyph unicode="&#x2012;" horiz-adv-x="847" d="M119 422v199h610v-199h-610z" />
<glyph unicode="&#x2013;" horiz-adv-x="1148" d="M119 422v199h911v-199h-911z" />
<glyph unicode="&#x2014;" horiz-adv-x="1755" d="M119 422v199h1517v-199h-1517z" />
<glyph unicode="&#x2018;" horiz-adv-x="456" d="M96 1018v121q0 188 101 338l118 -33q-29 -113 -28 -240q82 0 82 -86l-2 -100q-4 -53 -26 -74.5t-77 -21.5h-67q-57 0 -79 21.5t-22 74.5z" />
<glyph unicode="&#x2019;" horiz-adv-x="450" d="M86 1264l2 100q2 55 24.5 76.5t77.5 21.5h68q57 0 78.5 -21.5t21.5 -76.5v-119q-2 -186 -100 -340l-119 35q25 98 29 240q-82 0 -82 84z" />
<glyph unicode="&#x201a;" horiz-adv-x="479" d="M102 90l2 105q4 57 26 78.5t77 21.5h69q55 0 77 -21.5t22 -78.5v-125q0 -195 -99 -353l-120 35q29 115 28 250q-78 0 -82 88z" />
<glyph unicode="&#x201c;" horiz-adv-x="823" d="M96 1018v121q0 188 101 338l118 -33q-29 -113 -28 -240q82 0 82 -86l-2 -100q-4 -53 -26 -74.5t-77 -21.5h-67q-57 0 -79 21.5t-22 74.5zM463 1018v121q2 188 100 338l121 -33q-29 -102 -29 -240q78 0 82 -86l-4 -100q-2 -53 -24.5 -74.5t-77.5 -21.5h-68 q-55 0 -76.5 21.5t-23.5 74.5z" />
<glyph unicode="&#x201d;" horiz-adv-x="817" d="M86 1264l2 100q2 55 24.5 76.5t77.5 21.5h68q57 0 78.5 -21.5t21.5 -76.5v-119q-2 -186 -100 -340l-119 35q25 98 29 240q-82 0 -82 84zM453 1264l2 100q2 55 25.5 76.5t76.5 21.5h70q55 0 76.5 -21.5t21.5 -76.5v-119q0 -186 -98 -340l-121 35q29 113 29 240 q-78 0 -82 84z" />
<glyph unicode="&#x201e;" horiz-adv-x="845" d="M102 74l2 100q2 55 25 75.5t78 20.5h67q57 0 79 -20.5t22 -75.5v-119q-2 -186 -101 -340l-118 35q25 98 28 240q-82 0 -82 84zM469 74l2 100q2 55 24.5 75.5t77.5 20.5h70q55 0 76.5 -20.5t21.5 -75.5v-119q0 -186 -98 -340l-121 35q29 113 29 240q-78 0 -82 84z" />
<glyph unicode="&#x2020;" horiz-adv-x="964" d="M66 780v230h264v-197zM356 -225l15 1067v151l-15 422h252l-14 -422v-151l14 -1067h-252zM635 813v197h264v-230z" />
<glyph unicode="&#x2021;" horiz-adv-x="1040" d="M102 180v230l265 -33v-197h-265zM102 780v230h265v-197zM393 -225l15 415v818l-15 407h254l-16 -407v-818l16 -415h-254zM674 180v197l264 33v-230h-264zM674 813v197h264v-230z" />
<glyph unicode="&#x2022;" horiz-adv-x="761" d="M152 539v30q0 117 48 163t173 46h28q119 0 165 -46t46 -163v-30q0 -125 -46 -173.5t-165 -48.5h-28q-127 0 -174 48.5t-47 173.5z" />
<glyph unicode="&#x2026;" horiz-adv-x="1828" d="M94 106v99q0 59 23 81.5t82 22.5h82q59 0 82.5 -22.5t23.5 -81.5v-99q0 -59 -23.5 -82.5t-82.5 -23.5h-82q-59 0 -82 23.5t-23 82.5zM756 106v99q0 59 23.5 81.5t82.5 22.5h82q59 0 83 -22.5t24 -81.5v-99q0 -59 -23.5 -82.5t-83.5 -23.5h-82q-59 0 -82.5 23.5 t-23.5 82.5zM1419 106v99q0 59 24 81.5t83 22.5h82q59 0 82.5 -22.5t23.5 -81.5v-99q0 -59 -23.5 -82.5t-82.5 -23.5h-82q-59 0 -83 23.5t-24 82.5z" />
<glyph unicode="&#x202f;" horiz-adv-x="383" />
<glyph unicode="&#x2030;" horiz-adv-x="2652" d="M70 1020q0 236 77.5 328t272.5 92q197 0 274.5 -92.5t77.5 -327.5q0 -233 -78 -326.5t-274 -93.5q-195 0 -272.5 93t-77.5 327zM293 1020q0 -154 24.5 -203t100.5 -49q78 0 103.5 48t25.5 204q0 154 -25.5 203t-103.5 49q-74 0 -99.5 -49t-25.5 -203zM406 0l847 1413h193 l-846 -1413h-194zM1087 397q0 233 77 326.5t272 93.5q197 0 274.5 -93t77.5 -327q0 -236 -78 -329t-274 -93q-195 0 -272 93.5t-77 328.5zM1311 397q-2 -154 23.5 -203t101 -49t101.5 49.5t26 202.5q0 152 -26 201t-101.5 49t-101 -48t-23.5 -202zM1878 397q0 233 78 326.5 t272.5 93.5t272 -93t77.5 -327q0 -236 -77.5 -329t-272 -93t-272.5 93.5t-78 328.5zM2101 397.5q0 -151.5 25.5 -202t99.5 -50.5q78 0 103.5 49.5t25.5 203t-25.5 201.5t-103.5 48q-74 0 -99.5 -49t-25.5 -200.5z" />
<glyph unicode="&#x2039;" horiz-adv-x="636" d="M70 481v66l323 405l160 -102l-215 -336l217 -346l-160 -100z" />
<glyph unicode="&#x203a;" horiz-adv-x="638" d="M82 168l219 346l-217 336l158 102l327 -405v-66l-327 -413z" />
<glyph unicode="&#x2044;" horiz-adv-x="327" d="M-358 0l847 1413h195l-848 -1413h-194z" />
<glyph unicode="&#x205f;" horiz-adv-x="478" />
<glyph unicode="&#x20ac;" horiz-adv-x="1308" d="M80 483v193h891l-19 -193h-385q23 -121 82.5 -179t169.5 -64q180 -19 385 18l25 -225q-168 -57 -387 -58q-283 0 -425.5 124t-178.5 384h-158zM82 754v194h156q39 252 181 371t423 119q190 0 356 -47l-27 -228q-223 29 -352 11q-102 -10 -161.5 -63.5t-86.5 -162.5h457 l-20 -194h-926z" />
<glyph unicode="&#x2122;" horiz-adv-x="2007" d="M115 1262v163h696v-163h-244v-615h-209v615h-243zM887 647l28 703q4 76 74 75h197q63 0 80 -65l92 -352q4 -18 10 -56.5t10 -56.5h15q2 14 9 54t13 61l88 350q12 66 80 65h201q70 0 76 -75l26 -703h-192l-27 621h-20l-115 -443q-14 -63 -82 -63h-129q-66 0 -82 63 l-115 443h-20l-25 -621h-192z" />
<glyph unicode="&#x25ca;" horiz-adv-x="1167" d="M55 688q-10 20 0 41l510 684q21 27 39 0l508 -684q10 -20 0 -41l-508 -688q-18 -27 -39 0zM293 709l293 -414l288 414l-288 409z" />
<glyph unicode="&#x25fc;" horiz-adv-x="1013" d="M0 0v1014h1014v-1014h-1014z" />
<glyph unicode="&#xfb01;" horiz-adv-x="1366" d="M39 807v192l176 11v135q0 330 332 330q168 0 270 -21v-201h-164q-76 0 -105.5 -32.5t-29.5 -114.5v-96h715v-1010h-303v807h-412v-807h-303v807h-176zM926 1266v110q0 88 88 88h133q90 0 90 -88v-110q0 -88 -90 -88h-133q-88 0 -88 88z" />
<glyph unicode="&#xfb02;" horiz-adv-x="1476" d="M37 807v192l176 11v135q0 160 78 246t252 84q508 0 704 -37v-1125q0 -104 109 -104h76l34 -193q-76 -41 -235 -41q-133 0 -209 70t-76 193v1019h-297q-76 0 -104.5 -33.5t-28.5 -117.5v-96h254v-203h-254v-807h-303v807h-176z" />
</font>
</defs>
</svg>
